<mxfile host="65bd71144e">
    <diagram id="3DxCPgkRJ_6D2MlnwSE6" name="Page-1">
        <mxGraphModel dx="856" dy="659" grid="1" gridSize="10" guides="1" tooltips="1" connect="1" arrows="1" fold="1" page="1" pageScale="1" pageWidth="850" pageHeight="1100" math="0" shadow="0">
            <root>
                <mxCell id="0"/>
                <mxCell id="1" parent="0"/>
                <mxCell id="2" value="" style="group" vertex="1" connectable="0" parent="1">
                    <mxGeometry x="70" y="350" width="670" height="920" as="geometry"/>
                </mxCell>
                <mxCell id="3" value="" style="rounded=1;whiteSpace=wrap;html=1;absoluteArcSize=1;arcSize=14;strokeWidth=2;" vertex="1" parent="2">
                    <mxGeometry width="670" height="920" as="geometry"/>
                </mxCell>
                <mxCell id="4" style="edgeStyle=none;html=1;entryX=0.5;entryY=0;entryDx=0;entryDy=0;flowAnimation=1;" edge="1" parent="2" source="5" target="7">
                    <mxGeometry relative="1" as="geometry">
                        <mxPoint x="275.5" y="50" as="targetPoint"/>
                    </mxGeometry>
                </mxCell>
                <mxCell id="5" value="Start" style="strokeWidth=2;html=1;shape=mxgraph.flowchart.terminator;whiteSpace=wrap;" vertex="1" parent="2">
                    <mxGeometry x="250" y="20" width="100" height="60" as="geometry"/>
                </mxCell>
                <mxCell id="6" value="" style="edgeStyle=none;html=1;flowAnimation=1;" edge="1" parent="2" source="7" target="10">
                    <mxGeometry relative="1" as="geometry"/>
                </mxCell>
                <mxCell id="7" value="1. Load sample real images" style="rounded=1;whiteSpace=wrap;html=1;arcSize=14;strokeWidth=2;resizeWidth=0;" vertex="1" parent="2">
                    <mxGeometry x="210" y="140" width="180" height="60" as="geometry"/>
                </mxCell>
                <mxCell id="8" value="" style="edgeStyle=none;html=1;flowAnimation=1;" edge="1" parent="2" source="10" target="13">
                    <mxGeometry relative="1" as="geometry"/>
                </mxCell>
                <mxCell id="9" value="" style="edgeStyle=none;html=1;flowAnimation=1;" edge="1" parent="2">
                    <mxGeometry relative="1" as="geometry">
                        <mxPoint x="215" y="280" as="sourcePoint"/>
                        <mxPoint x="135.5" y="280" as="targetPoint"/>
                    </mxGeometry>
                </mxCell>
                <mxCell id="10" value="2. Define a new CNN for Discriminator" style="whiteSpace=wrap;html=1;rounded=1;arcSize=14;strokeWidth=2;resizeWidth=0;" vertex="1" parent="2">
                    <mxGeometry x="210" y="260" width="180" height="60" as="geometry"/>
                </mxCell>
                <mxCell id="11" value="" style="edgeStyle=none;html=1;flowAnimation=1;" edge="1" parent="2" source="13" target="16">
                    <mxGeometry relative="1" as="geometry"/>
                </mxCell>
                <mxCell id="12" value="" style="edgeStyle=none;html=1;flowAnimation=1;" edge="1" parent="2">
                    <mxGeometry relative="1" as="geometry">
                        <mxPoint x="390" y="410.5" as="sourcePoint"/>
                        <mxPoint x="470" y="410.5" as="targetPoint"/>
                    </mxGeometry>
                </mxCell>
                <mxCell id="13" value="3. Load and prepare cifar trg set for real images&amp;nbsp;&lt;div&gt;(64 x 32 x 32 x 3)&lt;/div&gt;" style="whiteSpace=wrap;html=1;rounded=1;arcSize=14;strokeWidth=2;resizeWidth=0;" vertex="1" parent="2">
                    <mxGeometry x="210" y="390" width="180" height="60" as="geometry"/>
                </mxCell>
                <mxCell id="14" style="edgeStyle=orthogonalEdgeStyle;html=1;exitX=1;exitY=0.25;exitDx=0;exitDy=0;entryX=0.37;entryY=1.008;entryDx=0;entryDy=0;entryPerimeter=0;flowAnimation=1;" edge="1" parent="2" source="16" target="21">
                    <mxGeometry relative="1" as="geometry">
                        <mxPoint x="500" y="560" as="targetPoint"/>
                    </mxGeometry>
                </mxCell>
                <mxCell id="15" value="" style="edgeStyle=none;html=1;flowAnimation=1;" edge="1" parent="2" source="16" target="27">
                    <mxGeometry relative="1" as="geometry"/>
                </mxCell>
                <mxCell id="16" value="4. Generate random data to train discriminator on fake data&amp;nbsp;&lt;div&gt;(64 x 32 x 32 x 3)&lt;/div&gt;" style="whiteSpace=wrap;html=1;rounded=1;arcSize=14;strokeWidth=2;resizeWidth=0;" vertex="1" parent="2">
                    <mxGeometry x="210" y="540" width="180" height="60" as="geometry"/>
                </mxCell>
                <mxCell id="17" style="edgeStyle=none;html=1;entryX=0;entryY=0.5;entryDx=0;entryDy=0;flowAnimation=1;" edge="1" parent="2">
                    <mxGeometry relative="1" as="geometry">
                        <mxPoint x="134.5" y="299" as="sourcePoint"/>
                        <mxPoint x="214" y="299" as="targetPoint"/>
                    </mxGeometry>
                </mxCell>
                <mxCell id="18" value="2.1 Instantiate the model" style="whiteSpace=wrap;html=1;rounded=1;arcSize=14;strokeWidth=2;" vertex="1" parent="2">
                    <mxGeometry x="20" y="260" width="120" height="60" as="geometry"/>
                </mxCell>
                <mxCell id="19" style="edgeStyle=none;html=1;entryX=1;entryY=0.5;entryDx=0;entryDy=0;flowAnimation=1;" edge="1" parent="2">
                    <mxGeometry relative="1" as="geometry">
                        <mxPoint x="470" y="430.5" as="sourcePoint"/>
                        <mxPoint x="390" y="430.5" as="targetPoint"/>
                    </mxGeometry>
                </mxCell>
                <mxCell id="20" value="" style="group" vertex="1" connectable="0" parent="2">
                    <mxGeometry x="470" y="310" width="160" height="210" as="geometry"/>
                </mxCell>
                <mxCell id="21" value="" style="rounded=1;whiteSpace=wrap;html=1;absoluteArcSize=1;arcSize=14;strokeWidth=2;" vertex="1" parent="20">
                    <mxGeometry width="160" height="210" as="geometry"/>
                </mxCell>
                <mxCell id="22" value="" style="edgeStyle=none;html=1;flowAnimation=1;" edge="1" parent="20" source="23" target="24">
                    <mxGeometry relative="1" as="geometry"/>
                </mxCell>
                <mxCell id="23" value="Normalize the data from [0,255] to [-1,1]" style="whiteSpace=wrap;html=1;rounded=1;arcSize=14;strokeWidth=2;" vertex="1" parent="20">
                    <mxGeometry x="20" y="30" width="120" height="60" as="geometry"/>
                </mxCell>
                <mxCell id="24" value="Load trg data in form of x and y for 64 images" style="whiteSpace=wrap;html=1;rounded=1;arcSize=14;strokeWidth=2;" vertex="1" parent="20">
                    <mxGeometry x="20" y="120" width="120" height="60" as="geometry"/>
                </mxCell>
                <mxCell id="25" style="edgeStyle=none;html=1;exitX=0.558;exitY=1.01;exitDx=0;exitDy=0;flowAnimation=1;exitPerimeter=0;entryX=1;entryY=0.75;entryDx=0;entryDy=0;" edge="1" parent="2" target="16">
                    <mxGeometry relative="1" as="geometry">
                        <mxPoint x="390" y="583" as="targetPoint"/>
                        <Array as="points">
                            <mxPoint x="560" y="583"/>
                        </Array>
                        <mxPoint x="559.2800000000002" y="525.0999999999999" as="sourcePoint"/>
                    </mxGeometry>
                </mxCell>
                <mxCell id="26" value="" style="edgeStyle=none;html=1;flowAnimation=1;" edge="1" parent="2" source="27" target="28">
                    <mxGeometry relative="1" as="geometry"/>
                </mxCell>
                <mxCell id="27" value="5. Train discriminator CNN on real data" style="whiteSpace=wrap;html=1;rounded=1;arcSize=14;strokeWidth=2;resizeWidth=0;" vertex="1" parent="2">
                    <mxGeometry x="210" y="680" width="180" height="60" as="geometry"/>
                </mxCell>
                <mxCell id="28" value="6. Train discriminator CNN on fake data" style="whiteSpace=wrap;html=1;rounded=1;arcSize=14;strokeWidth=2;" vertex="1" parent="2">
                    <mxGeometry x="210" y="820" width="180" height="60" as="geometry"/>
                </mxCell>
                <mxCell id="29" value="TRAINING A DISCRIMINATOR CNN" style="text;html=1;align=center;verticalAlign=middle;whiteSpace=wrap;rounded=0;fontStyle=1" vertex="1" parent="2">
                    <mxGeometry x="490" y="10" width="160" height="30" as="geometry"/>
                </mxCell>
                <mxCell id="30" value="Batch of 64 images" style="text;html=1;align=center;verticalAlign=middle;whiteSpace=wrap;rounded=0;" vertex="1" parent="2">
                    <mxGeometry x="10" y="397.5" width="160" height="45" as="geometry"/>
                </mxCell>
                <mxCell id="31" value="64 X 32 X 32 X 3&lt;div&gt;Training set :&amp;nbsp;&lt;/div&gt;&lt;div&gt;64 real and 64 fake images.&lt;/div&gt;" style="shape=parallelogram;perimeter=parallelogramPerimeter;whiteSpace=wrap;html=1;fixedSize=1;" vertex="1" parent="2">
                    <mxGeometry x="490" y="800" width="170" height="80" as="geometry"/>
                </mxCell>
            </root>
        </mxGraphModel>
    </diagram>
</mxfile>